<svg xmlns="http://www.w3.org/2000/svg" xmlns:xlink="http://www.w3.org/1999/xlink" width="64" zoomAndPan="magnify" viewBox="0 0 382.5 382.499997" height="64" preserveAspectRatio="xMidYMid meet" version="1.0"><defs><clipPath id="ff0074c128"><path d="M 114.601562 114.878906 L 267.402344 114.878906 L 267.402344 266.929688 L 114.601562 266.929688 Z M 114.601562 114.878906 " clip-rule="nonzero"/></clipPath></defs><path fill="#ffffff" d="M 0 0 L 382 0 L 382 382 L 0 382 Z M 0 0 " fill-opacity="1" fill-rule="nonzero"/><path fill="#ffffff" d="M 0 0 L 382 0 L 382 382 L 0 382 Z M 0 0 " fill-opacity="1" fill-rule="nonzero"/><g clip-path="url(#ff0074c128)"><path fill="#7ed957" d="M 191.035156 114.929688 C 148.8125 114.929688 114.601562 149.140625 114.601562 191.359375 C 114.601562 229.28125 142.261719 260.78125 178.460938 266.734375 L 178.460938 214.917969 L 159.003906 214.917969 L 159.003906 192.222656 L 178.460938 192.222656 L 178.460938 175.742188 C 178.460938 157.875 192.953125 145.765625 210.820312 145.765625 C 218.761719 145.765625 223.722656 146.957031 223.722656 146.957031 L 223.722656 166.015625 L 210.820312 166.015625 C 205.460938 166.015625 201.09375 170.382812 201.09375 175.742188 L 201.09375 192.222656 L 221.9375 192.222656 L 219.027344 214.917969 L 201.09375 214.917969 L 201.09375 267.066406 C 238.480469 262.101562 267.335938 230.074219 267.335938 191.359375 C 267.402344 149.140625 233.1875 114.929688 191.035156 114.929688 Z M 191.035156 114.929688 " fill-opacity="1" fill-rule="nonzero"/></g></svg>