<svg xmlns="http://www.w3.org/2000/svg" xmlns:xlink="http://www.w3.org/1999/xlink" width="64" zoomAndPan="magnify" viewBox="0 0 382.5 382.499997" height="64" preserveAspectRatio="xMidYMid meet" version="1.0"><defs><clipPath id="dc53b7ce03"><path d="M 114.601562 114.601562 L 267.402344 114.601562 L 267.402344 267.402344 L 114.601562 267.402344 Z M 114.601562 114.601562 " clip-rule="nonzero"/></clipPath></defs><path fill="#ffffff" d="M 0 0 L 382 0 L 382 382 L 0 382 Z M 0 0 " fill-opacity="1" fill-rule="nonzero"/><path fill="#ffffff" d="M 0 0 L 382 0 L 382 382 L 0 382 Z M 0 0 " fill-opacity="1" fill-rule="nonzero"/><g clip-path="url(#dc53b7ce03)"><path fill="#7ed957" d="M 252.230469 234.722656 C 252.230469 244.351562 244.351562 252.230469 234.722656 252.230469 L 147.277344 252.230469 C 137.648438 252.230469 129.773438 244.351562 129.773438 234.722656 L 129.773438 147.277344 C 129.773438 137.648438 137.648438 129.773438 147.277344 129.773438 L 234.722656 129.773438 C 244.351562 129.773438 252.230469 137.648438 252.230469 147.277344 Z M 234.722656 114.601562 L 147.277344 114.601562 C 129.257812 114.601562 114.601562 129.257812 114.601562 147.277344 L 114.601562 234.722656 C 114.601562 252.742188 129.257812 267.402344 147.277344 267.402344 L 234.722656 267.402344 C 252.742188 267.402344 267.402344 252.742188 267.402344 234.722656 L 267.402344 147.277344 C 267.402344 129.257812 252.742188 114.601562 234.722656 114.601562 " fill-opacity="1" fill-rule="nonzero"/></g><path fill="#7ed957" d="M 191 216.839844 C 176.730469 216.839844 165.160156 205.273438 165.160156 191 C 165.160156 176.730469 176.730469 165.160156 191 165.160156 C 205.273438 165.160156 216.839844 176.730469 216.839844 191 C 216.839844 205.273438 205.273438 216.839844 191 216.839844 Z M 191 150.429688 C 168.628906 150.429688 150.429688 168.628906 150.429688 191 C 150.429688 213.371094 168.628906 231.570312 191 231.570312 C 213.371094 231.570312 231.570312 213.371094 231.570312 191 C 231.570312 168.628906 213.371094 150.429688 191 150.429688 " fill-opacity="1" fill-rule="nonzero"/><path fill="#7ed957" d="M 237.042969 142.953125 L 228.097656 142.953125 C 226.386719 142.953125 224.988281 144.351562 224.988281 146.0625 L 224.988281 155.007812 C 224.988281 156.71875 226.386719 158.117188 228.097656 158.117188 L 237.042969 158.117188 C 238.753906 158.117188 240.152344 156.71875 240.152344 155.007812 L 240.152344 146.0625 C 240.152344 144.351562 238.753906 142.953125 237.042969 142.953125 " fill-opacity="1" fill-rule="nonzero"/></svg>