<svg xmlns="http://www.w3.org/2000/svg" xmlns:xlink="http://www.w3.org/1999/xlink" width="64" zoomAndPan="magnify" viewBox="0 0 382.5 382.499997" height="64" preserveAspectRatio="xMidYMid meet" version="1.0"><defs><clipPath id="6bcf8f2f2e"><path d="M 114.601562 114.601562 L 267.402344 114.601562 L 267.402344 267.402344 L 114.601562 267.402344 Z M 114.601562 114.601562 " clip-rule="nonzero"/></clipPath></defs><path fill="#ffffff" d="M 0 0 L 382 0 L 382 382 L 0 382 Z M 0 0 " fill-opacity="1" fill-rule="nonzero"/><path fill="#ffffff" d="M 0 0 L 382 0 L 382 382 L 0 382 Z M 0 0 " fill-opacity="1" fill-rule="nonzero"/><g clip-path="url(#6bcf8f2f2e)"><path fill="#a9f286" d="M 236.117188 114.601562 L 145.882812 114.601562 C 128.632812 114.601562 114.601562 128.632812 114.601562 145.882812 L 114.601562 236.117188 C 114.601562 253.367188 128.632812 267.402344 145.882812 267.402344 L 236.117188 267.402344 C 253.367188 267.402344 267.402344 253.367188 267.402344 236.117188 L 267.402344 145.882812 C 267.402344 128.632812 253.367188 114.601562 236.117188 114.601562 Z M 258.414062 236.117188 C 258.414062 248.410156 248.410156 258.414062 236.117188 258.414062 L 145.882812 258.414062 C 133.589844 258.414062 123.589844 248.410156 123.589844 236.117188 L 123.589844 145.882812 C 123.589844 133.589844 133.589844 123.589844 145.882812 123.589844 L 236.117188 123.589844 C 248.410156 123.589844 258.414062 133.589844 258.414062 145.882812 Z M 258.414062 236.117188 " fill-opacity="1" fill-rule="nonzero"/></g><path fill="#a9f286" d="M 161.039062 175.308594 L 143.0625 175.308594 C 140.582031 175.308594 138.570312 177.320312 138.570312 179.800781 L 138.570312 238.375 C 138.570312 240.859375 140.582031 242.871094 143.0625 242.871094 L 161.039062 242.871094 C 163.519531 242.871094 165.535156 240.859375 165.535156 238.375 L 165.535156 179.800781 C 165.535156 177.320312 163.519531 175.308594 161.039062 175.308594 Z M 156.546875 233.882812 L 147.558594 233.882812 L 147.558594 184.296875 L 156.546875 184.296875 Z M 156.546875 233.882812 " fill-opacity="1" fill-rule="nonzero"/><path fill="#a9f286" d="M 201.488281 183.316406 L 201.488281 179.800781 C 201.488281 177.320312 199.472656 175.308594 196.992188 175.308594 L 179.015625 175.308594 C 176.535156 175.308594 174.523438 177.320312 174.523438 179.800781 L 174.523438 238.375 C 174.523438 240.859375 176.535156 242.871094 179.015625 242.871094 L 196.992188 242.871094 C 199.472656 242.871094 201.488281 240.859375 201.488281 238.375 L 201.488281 216.953125 C 201.488281 212.824219 204.847656 209.464844 208.976562 209.464844 C 213.105469 209.464844 216.46875 212.824219 216.46875 216.953125 L 216.46875 238.375 C 216.46875 240.859375 218.480469 242.871094 220.960938 242.871094 L 238.9375 242.871094 C 241.417969 242.871094 243.433594 240.859375 243.433594 238.375 L 243.433594 216.953125 C 243.433594 195.003906 223.023438 178.515625 201.488281 183.316406 Z M 234.445312 233.882812 L 225.457031 233.882812 L 225.457031 216.953125 C 225.457031 207.867188 218.0625 200.476562 208.976562 200.476562 C 199.890625 200.476562 192.5 207.867188 192.5 216.953125 L 192.5 233.882812 L 183.511719 233.882812 L 183.511719 184.296875 L 192.5 184.296875 L 192.5 189.496094 C 192.5 192.738281 195.828125 194.910156 198.796875 193.613281 C 215.460938 186.3125 234.445312 198.53125 234.445312 216.953125 Z M 234.445312 233.882812 " fill-opacity="1" fill-rule="nonzero"/><path fill="#a9f286" d="M 152.050781 139.128906 C 144.617188 139.128906 138.570312 145.179688 138.570312 152.613281 C 138.570312 160.046875 144.617188 166.09375 152.050781 166.09375 C 159.484375 166.09375 165.535156 160.046875 165.535156 152.613281 C 165.535156 145.179688 159.484375 139.128906 152.050781 139.128906 Z M 152.050781 157.105469 C 149.574219 157.105469 147.558594 155.089844 147.558594 152.613281 C 147.558594 150.136719 149.574219 148.117188 152.050781 148.117188 C 154.527344 148.117188 156.546875 150.136719 156.546875 152.613281 C 156.546875 155.089844 154.527344 157.105469 152.050781 157.105469 Z M 152.050781 157.105469 " fill-opacity="1" fill-rule="nonzero"/></svg>